<?xml version="1.0" encoding="UTF-8"?>
<svg version="1.1" xmlns="http://www.w3.org/2000/svg" width="512" height="512">
<path d="M0 0 C7.64552687 6.35051906 11.54112658 13.40499735 12.6484375 23.3046875 C12.9838072 30.84429528 10.52998094 36.11896281 6.73046875 42.54296875 C5.41350253 45.18902911 5.41350253 45.18902911 6.08203125 47.65234375 C8.36301008 51.51464955 11.09305874 54.93640412 13.8984375 58.4296875 C18.89181355 64.74392948 23.7765884 71.11550467 28.5234375 77.6171875 C33.56590856 84.51556804 38.70058031 91.33514593 43.8984375 98.1171875 C48.3501218 103.92712909 52.74813017 109.75646899 56.9609375 115.7421875 C68.24035523 131.70682931 79.23065406 146.40231961 99.0859375 151.7421875 C113.78450922 154.16472988 128.4767512 152.12562873 140.79882812 143.46777344 C152.10807433 134.88313316 161.91322144 124.16392605 171.8984375 114.1171875 C173.33700286 112.67359219 174.77580351 111.23023131 176.21484375 109.78710938 C179.6954193 106.29565798 183.17282135 102.80107554 186.6484375 99.3046875 C186.03029175 98.38888916 186.03029175 98.38888916 185.3996582 97.45458984 C184.58887817 96.24730225 184.58887817 96.24730225 183.76171875 95.015625 C183.22587158 94.21946777 182.69002441 93.42331055 182.13793945 92.60302734 C177.19584201 84.9772438 175.65224023 76.55693245 177.2734375 67.6171875 C179.50536552 59.37961106 184.6065999 53.03517364 191.6484375 48.3046875 C200.5687279 43.77777366 208.74553939 42.83558356 218.2734375 45.8671875 C227.36090252 49.53811264 232.65752104 55.46643475 236.6484375 64.3046875 C238.93427715 71.16220644 238.96129938 81.70730703 235.89453125 88.3984375 C231.96991761 94.40223516 227.11574091 100.04996966 220.6484375 103.3046875 C219.6584375 103.3046875 218.6684375 103.3046875 217.6484375 103.3046875 C217.73402168 104.66437401 217.73402168 104.66437401 217.82133484 106.05152893 C217.80932514 111.65390493 216.23991452 116.95428882 214.88208008 122.35522461 C214.58775085 123.5528392 214.29342163 124.7504538 213.99017334 125.98435974 C213.18423914 129.25462166 212.37091922 132.5228539 211.55329347 135.7902 C210.8696782 138.52537425 210.19080325 141.26171661 209.51176757 143.99803072 C207.90843114 150.45791473 206.29610822 156.91551088 204.6784668 163.37182617 C203.01418565 170.01507547 201.36645109 176.66227591 199.72661668 183.31159776 C198.31422304 189.03581533 196.89084379 194.75722688 195.45890158 200.47658545 C194.60553622 203.88567219 193.75641614 207.29567264 192.91816139 210.70850945 C191.98195403 214.51797883 191.02288678 218.3214913 190.06176758 222.12475586 C189.78987106 223.24448792 189.51797455 224.36421997 189.23783875 225.5178833 C186.02818104 238.03745606 186.02818104 238.03745606 181.6484375 242.3046875 C176.66269499 244.92865589 172.92539391 245.68669037 167.22415161 245.73210144 C166.14291305 245.74664101 166.14291305 245.74664101 165.03983128 245.76147431 C162.61647501 245.79027521 160.1935286 245.79786193 157.77001953 245.80541992 C155.99651382 245.8215856 154.22301874 245.83895387 152.44953537 245.85740852 C147.52647694 245.90440016 142.60347163 245.93192327 137.68025351 245.9557879 C133.41021347 245.97866134 129.14027933 246.01211422 124.87030852 246.04524559 C109.48097129 246.16355867 94.09149865 246.23448202 78.70184636 246.29636848 C76.62869591 246.30476748 74.55554642 246.3133749 72.48239708 246.32204533 C33.90946468 246.4830775 -4.66334827 246.57109802 -43.2366066 246.5939045 C-46.46600598 246.59585309 -49.69540534 246.59783919 -52.92480469 246.59985352 C-53.72582075 246.60034104 -54.52683681 246.60082856 -55.35212609 246.60133086 C-68.57404941 246.60978128 -81.7958869 246.63547632 -95.01777209 246.66743419 C-108.8025461 246.70047115 -122.58727549 246.71850677 -136.37208927 246.72171181 C-144.03141261 246.72386251 -151.69060416 246.73241698 -159.34988785 246.75817299 C-165.79549449 246.77981909 -172.24093598 246.78795417 -178.68657489 246.77820621 C-181.96122645 246.77366609 -185.23546486 246.77772592 -188.51008415 246.79496765 C-192.05812959 246.81261462 -195.60530535 246.80561838 -199.15335083 246.79243469 C-200.17990253 246.80340394 -201.20645422 246.81437318 -202.26411355 246.82567483 C-208.39056911 246.77064028 -213.30380745 245.97696348 -218.3515625 242.3046875 C-222.71081362 236.62637659 -223.97638284 230.00066793 -225.63549805 223.13061523 C-225.93683655 221.92003448 -226.23817505 220.70945374 -226.54864502 219.46218872 C-227.36823909 216.16040517 -228.17830899 212.85656556 -228.98400855 209.55138278 C-229.83159635 206.08369618 -230.69101499 202.618943 -231.54902649 199.15382385 C-232.98741466 193.33774943 -234.41796506 187.51979506 -235.84301758 181.70043945 C-237.85020891 173.5039624 -239.87235861 165.31122878 -241.89711702 157.11907661 C-243.30250399 151.43040202 -244.70420225 145.74081765 -246.10527825 140.05107999 C-246.44410287 138.67524758 -246.78304121 137.29944317 -247.12209296 135.92366672 C-248.23686528 131.39976188 -249.3473769 126.87482836 -250.45581055 122.34936523 C-250.73580399 121.21309189 -251.01579742 120.07681854 -251.30427551 118.90611267 C-251.56070831 117.85621155 -251.81714111 116.80631042 -252.0813446 115.72459412 C-252.3038322 114.81742362 -252.52631979 113.91025312 -252.75554943 112.97559261 C-253.3515625 110.3046875 -253.3515625 110.3046875 -253.83085346 107.04187107 C-254.04419294 104.2562035 -254.04419294 104.2562035 -255.953125 103.08984375 C-256.95472656 102.73212891 -256.95472656 102.73212891 -257.9765625 102.3671875 C-265.38983499 99.15211234 -269.85691778 93.42838636 -273.3515625 86.3046875 C-275.68175049 79.26720699 -275.59916319 69.23632253 -272.7890625 62.3671875 C-267.90268259 53.32653339 -261.22416808 47.68477756 -251.3359375 44.6953125 C-243.14895817 43.0837024 -235.73963564 44.55535098 -228.3515625 48.3046875 C-221.3097249 53.03517364 -216.20849052 59.37961106 -213.9765625 67.6171875 C-212.40272977 76.40946456 -213.91659836 84.59372197 -218.3515625 92.3046875 C-220.6015625 95.3671875 -220.6015625 95.3671875 -222.3515625 97.3046875 C-221.01940871 100.26381208 -219.56604549 102.33586053 -217.26635742 104.61694336 C-216.64198288 105.24116684 -216.01760834 105.86539032 -215.37431335 106.50852966 C-214.70036026 107.17216019 -214.02640717 107.83579071 -213.33203125 108.51953125 C-212.28865349 109.55866417 -212.28865349 109.55866417 -211.22419739 110.61878967 C-209.00047491 112.8313329 -206.76991235 115.03683308 -204.5390625 117.2421875 C-203.04836882 118.72284502 -201.55812924 120.20395986 -200.06835938 121.68554688 C-197.32336477 124.41422725 -194.57577298 127.14023161 -191.82495117 129.86303711 C-188.46369419 133.19094705 -185.10460244 136.52096936 -181.7890625 139.89453125 C-171.38199148 149.65116033 -157.73226175 152.8035148 -143.90625 152.55078125 C-129.26320754 151.53703216 -117.27429186 144.95555959 -107.3515625 134.3046875 C-99.32104884 124.81158882 -92.08117333 114.64557571 -84.73876953 104.61914062 C-80.38112594 98.67371612 -75.94972846 92.78862157 -71.4765625 86.9296875 C-70.81624023 86.064646 -70.15591797 85.19960449 -69.47558594 84.30834961 C-65.98685899 79.74281856 -62.49069114 75.18304154 -58.9921875 70.625 C-57.92073486 69.22580322 -57.92073486 69.22580322 -56.82763672 67.79833984 C-55.47234401 66.02855371 -54.11476396 64.26051574 -52.75439453 62.49462891 C-48.7287431 57.2348209 -44.95257936 51.86397639 -41.3515625 46.3046875 C-41.79185791 45.62978271 -42.23215332 44.95487793 -42.68579102 44.25952148 C-48.3877466 35.4061761 -50.59111849 27.74497057 -48.3515625 17.3046875 C-45.92535564 9.36677158 -41.06659347 2.38768841 -33.9765625 -2.0703125 C-22.98117026 -6.99928144 -10.07247155 -7.26154926 0 0 Z " fill="#000000" transform="translate(274.3515625,88.6953125)"/>
<path d="M0 0 C0.64546886 -0.00235223 1.29093771 -0.00470446 1.95596623 -0.00712797 C4.13971415 -0.01383596 6.32340281 -0.01335921 8.50716019 -0.01294994 C10.08028481 -0.01624745 11.65340858 -0.01997278 13.22653127 -0.02409142 C17.56583136 -0.03413242 21.90511762 -0.03783158 26.24442768 -0.04048073 C30.91804025 -0.04437757 35.59164179 -0.05395631 40.26524734 -0.0626936 C51.56005169 -0.08247547 62.85485695 -0.09252634 74.1496743 -0.10142139 C79.46460967 -0.10580142 84.77954403 -0.11116896 90.09447861 -0.11641026 C107.75567162 -0.13342416 125.41686401 -0.14791928 143.07806396 -0.155159 C147.66341782 -0.15706899 152.24877168 -0.1589893 156.83412552 -0.16094494 C157.9738355 -0.16142868 159.11354547 -0.16191242 160.28779212 -0.16241082 C178.75850864 -0.17071461 197.22916048 -0.19605671 215.69984874 -0.22852562 C234.6502503 -0.26156703 253.60061895 -0.27960511 272.55104947 -0.28280324 C283.1963192 -0.28497103 293.84149459 -0.29375895 304.4867363 -0.31926441 C313.5510913 -0.34093158 322.61532906 -0.34904151 331.67970702 -0.33929763 C336.30626466 -0.33474136 340.93258021 -0.33671594 345.55910492 -0.35605907 C349.79324542 -0.37360914 354.02696576 -0.37275983 358.26111022 -0.35716178 C359.79412654 -0.35477325 361.32717135 -0.35917346 362.86014399 -0.37099043 C364.94270605 -0.38605152 367.02376812 -0.37647954 369.10629272 -0.36076355 C370.84188702 -0.36222876 370.84188702 -0.36222876 372.61254382 -0.36372358 C376.54246798 0.24928085 378.70678009 1.68374594 381.80482864 4.13422108 C385.38400303 9.21854966 385.25769177 14.14359384 385.23842239 20.13422108 C385.24366425 21.08812733 385.2489061 22.04203358 385.25430679 23.02484608 C385.26071061 25.03525287 385.25941132 27.04569721 385.25087357 29.05609608 C385.24235567 32.12448482 385.27116089 35.1910156 385.30287552 38.25922108 C385.30448757 40.21755386 385.30390992 42.17588991 385.30092239 44.13422108 C385.31215637 45.04687733 385.32339035 45.95953358 385.33496475 46.89984608 C385.27413228 52.48376383 384.53284581 55.70423962 380.80482864 60.13422108 C376.36317505 64.15946964 372.2823435 64.25926512 366.44164848 64.26564884 C365.12414435 64.26948999 363.80664022 64.27333113 362.44921172 64.27728868 C360.98341023 64.27650843 359.51760878 64.27562964 358.0518074 64.27466297 C356.49758085 64.27724646 354.94335496 64.28025958 353.38913 64.28366637 C349.11135442 64.2917413 344.83359561 64.29352622 340.55581331 64.29426384 C335.94495092 64.2961135 331.33409725 64.30366032 326.7232399 64.31039906 C316.63868597 64.32398566 306.55413601 64.3300074 296.46957445 64.33440971 C290.17516018 64.33717117 283.88074746 64.3414083 277.58633423 64.34591389 C260.16525303 64.35810619 242.74417307 64.3684061 225.32308769 64.37178898 C224.20794811 64.37200854 223.09280852 64.37222811 221.94387683 64.37245433 C220.26713147 64.37278175 220.26713147 64.37278175 218.55651248 64.37311578 C216.29130276 64.37355925 214.02609305 64.37400581 211.76088333 64.37445545 C210.63725743 64.37467688 209.51363153 64.37489831 208.35595636 64.37512645 C190.14080729 64.37907621 171.92569819 64.39653584 153.71056457 64.41981497 C135.01774224 64.4435122 116.32493997 64.45599006 97.63210237 64.4571569 C87.13331639 64.45807449 76.6345825 64.46384813 66.13581085 64.48197651 C57.19777902 64.49735541 48.25981537 64.50251099 39.32177283 64.49423841 C34.76005008 64.49032427 30.19846475 64.4912987 25.6367588 64.50529575 C21.46196975 64.51798872 17.28742201 64.5168779 13.11263351 64.50470504 C11.60121393 64.50274005 10.08977752 64.50586335 8.57838161 64.5145494 C6.52519093 64.52560347 4.47285774 64.51818174 2.41969109 64.50615788 C1.27890118 64.50675496 0.13811128 64.50735205 -1.03724802 64.50796723 C-5.88339228 63.93441696 -9.94651107 62.05644492 -13.00767136 58.19672108 C-16.61486302 53.14665275 -16.36649301 48.52349533 -16.39829636 42.45843983 C-16.40399643 41.61505558 -16.4096965 40.77167133 -16.41556931 39.90272999 C-16.42500232 38.11996172 -16.43154653 36.33717614 -16.43540573 34.55438709 C-16.44509977 31.84175286 -16.47613403 29.12988041 -16.50767136 26.4174242 C-16.5142033 24.68110055 -16.51945302 22.94477151 -16.52329636 21.20843983 C-16.53564316 20.40403965 -16.54798996 19.59963947 -16.56071091 18.77086353 C-16.54002176 13.48072421 -15.69119425 9.82485613 -13.19517136 5.13422108 C-8.65473891 0.9260154 -6.10479134 0.00944199 0 0 Z " fill="#000000" transform="translate(72.19517135620117,364.86577892303467)"/>
</svg>
