<?xml version="1.0" encoding="UTF-8"?>
<svg version="1.1" xmlns="http://www.w3.org/2000/svg" width="512" height="512">
<path d="M0 0 C7.37563986 6.07931528 11.36848141 12.79826818 12.75 22.3125 C13.22775231 30.25228835 10.86610415 35.82909305 6.83203125 42.5859375 C5.51452976 45.20099513 5.51452976 45.20099513 6.18359375 47.65625 C8.46285391 51.52132958 11.19370684 54.943078 14 58.4375 C18.99337605 64.75174198 23.8781509 71.12331717 28.625 77.625 C33.66747106 84.52338054 38.80214281 91.34295843 44 98.125 C48.4516843 103.93494159 52.84969267 109.76428149 57.0625 115.75 C69.08304315 132.76361456 80.14001283 147.16486317 101.6953125 151.83984375 C115.41719101 153.96305002 129.48135243 151.62294699 140.93115234 143.47558594 C152.1977586 134.82998301 162.01111737 124.17542771 172 114.125 C173.43856536 112.68140469 174.87736601 111.23804381 176.31640625 109.79492188 C179.7969818 106.30347048 183.27438385 102.80888804 186.75 99.3125 C186.13185425 98.40322754 186.13185425 98.40322754 185.5012207 97.47558594 C184.96070068 96.67411133 184.42018066 95.87263672 183.86328125 95.046875 C183.32743408 94.25506836 182.79158691 93.46326172 182.23950195 92.64746094 C177.88289525 85.81799257 175.78627582 78.43531806 176.75 70.3125 C179.05968915 60.76764001 183.5885653 53.84674195 191.8125 48.4375 C199.85291195 43.88892409 207.935996 42.72234506 216.94921875 45.1875 C226.17789169 48.70759608 231.89553538 53.54192474 236.0234375 62.515625 C238.92130986 69.68240611 239.01841945 78.89862783 236.87890625 86.34375 C233.50073611 93.52097705 228.00882922 99.88471953 220.75 103.3125 C219.76 103.3125 218.77 103.3125 217.75 103.3125 C217.83558418 104.67218651 217.83558418 104.67218651 217.92289734 106.05934143 C217.91088764 111.66171743 216.34147702 116.96210132 214.98364258 122.36303711 C214.68931335 123.5606517 214.39498413 124.7582663 214.09173584 125.99217224 C213.28580164 129.26243416 212.47248172 132.5306664 211.65485597 135.7980125 C210.9712407 138.53318675 210.29236575 141.26952911 209.61333007 144.00584322 C208.00999364 150.46572723 206.39767072 156.92332338 204.7800293 163.37963867 C203.11574815 170.02288797 201.46801359 176.67008841 199.82817918 183.31941026 C198.41578554 189.04362783 196.99240629 194.76503938 195.56046408 200.48439795 C194.70709872 203.89348469 193.85797864 207.30348514 193.01972389 210.71632195 C192.08351653 214.52579133 191.12444928 218.3293038 190.16333008 222.13256836 C189.89143356 223.25230042 189.61953705 224.37203247 189.33940125 225.5256958 C187.50361258 232.68636274 185.63435427 239.55142025 179.38265324 243.99525928 C173.94394687 245.96739508 168.71064527 245.78846707 162.96588135 245.81460571 C161.02819641 245.84047213 161.02819641 245.84047213 159.05136633 245.8668611 C155.49460553 245.91356659 151.93791554 245.94154251 148.38094014 245.96585676 C145.34517784 245.98889484 142.30957183 246.02265207 139.27391286 246.05642463 C128.76613054 246.17301847 118.25820653 246.24699757 107.75 246.3125 C106.19189121 246.32257615 104.63378256 246.33267428 103.07567406 246.34279537 C80.1061435 246.48983262 57.13656901 246.54907245 34.1666249 246.58221143 C31.5846017 246.5859736 29.00257888 246.58994096 26.42055607 246.5939641 C10.2144621 246.61908477 -5.9916336 246.64102042 -22.19774246 246.65369225 C-25.87580621 246.65661881 -29.55386992 246.65958113 -33.23193359 246.66259766 C-34.60211388 246.66371673 -34.60211388 246.66371673 -35.99997458 246.66485842 C-50.97001184 246.67765692 -65.93993437 246.71114325 -80.90991738 246.75239949 C-96.42039961 246.79478752 -111.93082217 246.81837716 -127.44136214 246.82361281 C-136.0960219 246.82701365 -144.75049615 246.83862656 -153.40509796 246.87171555 C-160.72247367 246.89966268 -168.0396248 246.9107345 -175.35704979 246.89952008 C-179.08113351 246.89433511 -182.80474571 246.89721482 -186.52876091 246.92198563 C-190.56452522 246.94861095 -194.59925039 246.93642632 -198.6350708 246.92050171 C-199.80659643 246.9343838 -200.97812207 246.94826588 -202.18514848 246.96256864 C-209.06129616 246.89558146 -214.07733956 246.10026542 -219.25 241.3125 C-220.79402637 239.05999279 -220.79402637 239.05999279 -221.55049133 236.75248718 C-221.84508554 235.87863058 -222.13967976 235.00477398 -222.44320107 234.10443687 C-222.70944471 233.18309771 -222.97568836 232.26175854 -223.25 231.3125 C-223.51866568 230.3884971 -223.78733135 229.46449421 -224.06413841 228.51249123 C-224.90659499 225.44331947 -225.68163513 222.36317888 -226.44213867 219.27270508 C-226.7337236 218.11206039 -227.02530853 216.95141571 -227.32572937 215.75559998 C-228.11586562 212.60419718 -228.89974048 209.45132268 -229.68051696 206.29759049 C-230.50280533 202.98186465 -231.33264148 199.6680276 -232.16145325 196.35392761 C-233.55052485 190.79484243 -234.93415239 185.23442534 -236.31420898 179.6730957 C-237.90638235 173.25715574 -239.50596053 166.84309874 -241.10977 160.4300583 C-242.82368172 153.57644203 -244.5322101 146.72149204 -246.23916459 139.86614013 C-246.72892371 137.9007315 -247.2196762 135.9355732 -247.71065331 133.97046852 C-248.62600361 130.30255501 -249.53669372 126.63351608 -250.44604492 122.96411133 C-250.71668762 121.88290009 -250.98733032 120.80168884 -251.26617432 119.68771362 C-252.29430782 115.52213957 -253.29840172 111.42789302 -253.82514954 107.16630554 C-253.92888227 104.27595604 -253.92888227 104.27595604 -255.8515625 103 C-256.51929688 102.773125 -257.18703125 102.54625 -257.875 102.3125 C-265.20586469 99.19130895 -270.04829046 93.50759284 -273.3671875 86.3203125 C-275.5681417 78.82148625 -275.6008589 69.62123081 -272.6875 62.3125 C-267.46099135 52.77002428 -260.48338505 47.72362835 -250.25 44.3125 C-240.04875856 43.36535277 -231.94618987 45.02082248 -223.9375 51.5625 C-217.2140763 57.9191915 -213.33137335 65.27050802 -212.9375 74.625 C-213.20035042 83.71653219 -216.36809211 90.49786238 -222.25 97.3125 C-220.91784621 100.27162458 -219.46448299 102.34367303 -217.16479492 104.62475586 C-216.54042038 105.24897934 -215.91604584 105.87320282 -215.27275085 106.51634216 C-214.59879776 107.17997269 -213.92484467 107.84360321 -213.23046875 108.52734375 C-212.18709099 109.56647667 -212.18709099 109.56647667 -211.12263489 110.62660217 C-208.89891241 112.8391454 -206.66834985 115.04464558 -204.4375 117.25 C-202.94680632 118.73065752 -201.45656674 120.21177236 -199.96679688 121.69335938 C-197.22180227 124.42203975 -194.47421048 127.14804411 -191.72338867 129.87084961 C-188.36213169 133.19875955 -185.00303994 136.52878186 -181.6875 139.90234375 C-171.28042898 149.65897283 -157.63069925 152.8113273 -143.8046875 152.55859375 C-129.16164504 151.54484466 -117.17272936 144.96337209 -107.25 134.3125 C-99.21948634 124.81940132 -91.97961083 114.65338821 -84.63720703 104.62695312 C-80.27956344 98.68152862 -75.84816596 92.79643407 -71.375 86.9375 C-70.71467773 86.0724585 -70.05435547 85.20741699 -69.37402344 84.31616211 C-65.88529649 79.75063106 -62.38912864 75.19085404 -58.890625 70.6328125 C-57.81917236 69.23361572 -57.81917236 69.23361572 -56.72607422 67.80615234 C-55.37078151 66.03636621 -54.01320146 64.26832824 -52.65283203 62.50244141 C-48.6271806 57.2426334 -44.85101686 51.87178889 -41.25 46.3125 C-41.69029541 45.62744385 -42.13059082 44.9423877 -42.58422852 44.23657227 C-48.93847054 34.23954024 -50.27397719 26.81490138 -47.7890625 15.1484375 C-45.66423381 8.22204789 -40.72621088 2.53664101 -34.6796875 -1.33203125 C-23.25417476 -7.24942367 -10.81395374 -7.57389508 0 0 Z " fill="#FEFEFE" transform="translate(274.25,88.6875)"/>
<path d="M0 0 C1.95219226 -0.00483667 1.95219226 -0.00483667 3.94382274 -0.00977105 C5.38634175 -0.00829994 6.82886066 -0.00673222 8.27137947 -0.00507832 C9.8051322 -0.00694651 11.33888446 -0.00924724 12.87263596 -0.01194364 C17.08921581 -0.01806701 21.30577585 -0.01792741 25.52235913 -0.01674926 C30.06914467 -0.01654539 34.61592381 -0.02206268 39.16270638 -0.02680683 C48.07119634 -0.03511675 56.97967969 -0.03786182 65.88817321 -0.03841921 C73.12817486 -0.03889418 80.36817432 -0.04094799 87.60817528 -0.04411983 C108.12873657 -0.05292713 128.64929262 -0.05753906 149.16985582 -0.05678936 C150.27635209 -0.0567494 151.38284837 -0.05670945 152.52287483 -0.05666828 C154.18464235 -0.05660696 154.18464235 -0.05660696 155.87998094 -0.0565444 C173.83895361 -0.05613785 191.79790532 -0.06570953 209.75687192 -0.07980665 C228.1909578 -0.09416271 246.62503345 -0.10107727 265.05912507 -0.10021287 C275.41092064 -0.09988065 285.76269424 -0.10263884 296.11448479 -0.11339092 C304.9272899 -0.12248577 313.74006308 -0.12467952 322.55287085 -0.1178815 C327.04988689 -0.11461123 331.54684161 -0.11457787 336.04385185 -0.12323475 C340.16063043 -0.13107823 344.27729887 -0.12969039 348.39407469 -0.12095062 C349.88327326 -0.11941088 351.37247995 -0.12124956 352.86166893 -0.12681069 C354.88697551 -0.13387288 356.91231572 -0.1273825 358.93762207 -0.12025452 C360.06230137 -0.12047188 361.18698066 -0.12068925 362.34574115 -0.12091321 C367.53485692 0.27766087 371.44220644 1.12984815 375.40715218 4.56613445 C378.34869782 8.01194506 379.84084854 10.00022437 379.88517952 14.50485516 C379.89793922 15.38619625 379.91069893 16.26753735 379.92384529 17.17558575 C379.92718376 18.60060658 379.92718376 18.60060658 379.93058968 20.0544157 C379.93724648 21.03476284 379.94390327 22.01510998 379.9507618 23.0251646 C379.9608906 25.10056971 379.96557874 27.17600739 379.96525764 29.25143719 C379.96962132 32.41873577 380.00591265 35.58463023 380.04387093 38.75168133 C380.049741 40.76925469 380.05370912 42.78683467 380.05558968 44.8044157 C380.06996071 45.7483569 380.08433174 46.69229809 380.09913826 47.66484356 C380.05895994 53.48139458 379.39528369 56.6621634 375.59465218 61.12863445 C371.36272795 64.84759817 367.86193155 65.25404373 362.33890247 65.26006222 C360.36040775 65.26582394 360.36040775 65.26582394 358.34194344 65.27170205 C356.86926944 65.27092175 355.39659548 65.27004296 353.92392159 65.26907635 C352.36643329 65.27165912 350.80894565 65.27467204 349.25145894 65.27807975 C344.96002245 65.28616324 340.66860268 65.28794007 336.37715948 65.28867722 C331.75332779 65.29052542 327.12950483 65.29807155 322.50567818 65.30481243 C312.39007428 65.31840562 302.27447434 65.32442194 292.15886283 65.32882309 C285.84552536 65.33158371 279.53218943 65.33582072 273.218853 65.34032726 C255.74720004 65.35252096 238.27554831 65.36282024 220.80389118 65.36620235 C219.68524886 65.36642192 218.56660655 65.36664149 217.41406598 65.36686771 C215.73203605 65.36719512 215.73203605 65.36719512 214.01602572 65.36752915 C211.74365056 65.36797262 209.47127539 65.36841919 207.19890022 65.36886883 C206.07171821 65.36909026 204.94453619 65.36931169 203.78319714 65.36953983 C185.51301908 65.37348903 167.24288087 65.39094634 148.9727182 65.41422835 C130.22568694 65.4379257 111.47867568 65.45040346 92.73162919 65.45157027 C82.20152925 65.45248792 71.67148123 65.45826273 61.14139557 65.47638988 C52.1758912 65.49176903 43.21045481 65.49692426 34.24493977 65.48865178 C29.66904727 65.48473758 25.09329176 65.48571233 20.517416 65.49970913 C16.32963433 65.51240191 12.14209324 65.51129143 7.95431212 65.49911842 C6.43815205 65.49715338 4.92197521 65.50027693 3.40583875 65.50896278 C1.34624131 65.5200164 -0.71250123 65.51259542 -2.7720747 65.50057125 C-3.91644444 65.50116834 -5.06081418 65.50176543 -6.23986179 65.50238061 C-10.5021167 64.99913991 -13.86729099 63.53151764 -17.04987907 60.62863445 C-21.35063546 55.10525501 -21.58515997 50.9151938 -21.64362907 44.11300945 C-21.65170082 43.22381817 -21.65977257 42.33462688 -21.66808891 41.41849041 C-21.68191826 39.53559595 -21.69264555 37.65267654 -21.70051384 35.76974773 C-21.71770048 32.90321024 -21.76159326 30.03783425 -21.80573845 27.1716032 C-21.81586826 25.33958041 -21.82438346 23.50754783 -21.83112907 21.67550945 C-21.84863716 20.82422466 -21.86614525 19.97293987 -21.88418388 19.09585857 C-21.86315695 13.26955149 -20.78385111 9.90863345 -17.40534782 5.12863445 C-11.76222115 0.5661065 -7.08018535 0.00443584 0 0 Z " fill="#FEFEFE" transform="translate(77.40534782409668,363.8713655471802)"/>
</svg>
