<?xml version="1.0" encoding="UTF-8"?>
<svg version="1.1" xmlns="http://www.w3.org/2000/svg" width="231" height="232">
<path d="M0 0 C76.23 0 152.46 0 231 0 C231 76.56 231 153.12 231 232 C154.77 232 78.54 232 0 232 C0 155.44 0 78.88 0 0 Z " fill="#010101" transform="translate(0,0)"/>
<path d="M0 0 C1.49781006 0.00845947 1.49781006 0.00845947 3.02587891 0.01708984 C35.3130566 0.53545019 63.40511957 13.28147154 86.0625 36.3125 C109.49016811 61.7725368 117.4090457 92.25490414 116.2578125 126.10595703 C115.81151847 133.4329892 114.27607341 140.33148917 112.0625 147.3125 C111.84819336 147.993125 111.63388672 148.67375 111.41308594 149.375 C102.02676708 178.23075755 83.00020741 202.67688533 55.79614258 216.6315918 C52.57477366 218.24470058 49.33487579 219.80565502 46.0625 221.3125 C45.43682129 221.60890381 44.81114258 221.90530762 44.16650391 222.21069336 C39.67251516 224.26432089 36.89542205 224.56905973 32.0625 223.3125 C30.36170258 219.91090516 30.90449554 216.02508134 30.88671875 212.28125 C30.86349874 210.4192598 30.83938056 208.55728062 30.81445312 206.6953125 C30.77950911 203.76392478 30.75009427 200.83293667 30.73657227 197.90136719 C30.94615219 183.07277038 30.94615219 183.07277038 26.0625 169.3125 C25.39201217 167.9810841 24.72425887 166.64827596 24.0625 165.3125 C24.98289063 165.16554687 25.90328125 165.01859375 26.8515625 164.8671875 C40.70086087 162.4132385 55.07176054 158.32795461 64.05859375 146.73828125 C67.77582264 141.19721449 70.43560637 135.77424652 72.0625 129.3125 C72.26617187 128.62671875 72.46984375 127.9409375 72.6796875 127.234375 C76.09249412 113.86365317 75.8108047 98.49946537 69.0625 86.3125 C68.13283989 85.06150618 67.17763664 83.82869552 66.1875 82.625 C63.15439933 77.8969313 64.22026504 74.65467605 65.0625 69.3125 C65.64206852 61.81359296 64.34289499 55.45230812 62.0625 48.3125 C52.9232956 47.24980181 44.24091431 51.72749793 36.8125 56.6875 C32.63963767 59.34049052 29.99659322 59.79107371 25.16796875 58.83984375 C24.47316406 58.66582031 23.77835938 58.49179687 23.0625 58.3125 C17.151995 56.91395061 11.25382941 57.12648695 5.2097168 57.12719727 C3.16237677 57.12503939 1.1156022 57.1069405 -0.93164062 57.08789062 C-7.57074275 57.0634519 -13.8843626 57.38251677 -20.44921875 58.5546875 C-26.48121715 59.51386641 -29.80484271 59.03749911 -34.8125 55.625 C-36.06859618 54.86823762 -37.32639269 54.11428976 -38.5859375 53.36328125 C-40.24496094 52.34814453 -40.24496094 52.34814453 -41.9375 51.3125 C-47.01755926 48.83657207 -51.33419101 47.96229319 -56.9375 48.3125 C-58.92173315 53.69501751 -59.00003215 58.19853742 -58.75708008 63.90356445 C-58.06831118 80.37672659 -58.06831118 80.37672659 -64.1796875 88.046875 C-70.64003171 96.37354088 -69.87543762 109.30288066 -68.9375 119.3125 C-66.9980765 132.51281043 -62.4213306 145.81190253 -51.53125 154.15625 C-41.45417372 160.99012932 -30.88456119 163.70261232 -18.9375 165.3125 C-19.23527344 165.89 -19.53304687 166.4675 -19.83984375 167.0625 C-20.84481615 169.12251461 -21.69939938 171.16638734 -22.5 173.3125 C-22.74878906 173.9725 -22.99757813 174.6325 -23.25390625 175.3125 C-23.99851465 177.3066102 -23.99851465 177.3066102 -24.28125 179.453125 C-24.9375 181.3125 -24.9375 181.3125 -26.65234375 182.359375 C-33.36219587 184.48199957 -39.68129509 185.86437779 -46.4765625 183.38671875 C-52.99247469 179.96737783 -56.69702949 175.17320576 -60.734375 169.1171875 C-64.77446181 163.97395642 -68.9027037 161.91713951 -75.3125 161.0625 C-76.37210938 160.91296875 -77.43171875 160.7634375 -78.5234375 160.609375 C-79.32007812 160.51140625 -80.11671875 160.4134375 -80.9375 160.3125 C-78.95420419 163.97878185 -77.06117673 166.19093135 -73.75 168.6875 C-69.48349816 172.31091485 -67.24661541 176.00820677 -64.8125 180.9375 C-60.94202286 188.72985758 -57.19443156 193.31890236 -49.06225586 196.71044922 C-44.79052288 197.92084719 -40.40175451 197.61734 -36 197.5 C-35.02998047 197.48646484 -34.05996094 197.47292969 -33.06054688 197.45898438 C-30.68560871 197.42388677 -28.31185622 197.37472275 -25.9375 197.3125 C-25.85053823 201.24986123 -25.79712165 205.18697628 -25.75 209.125 C-25.72486328 210.24455078 -25.69972656 211.36410156 -25.67382812 212.51757812 C-25.66416016 213.59072266 -25.65449219 214.66386719 -25.64453125 215.76953125 C-25.6288208 216.75928955 -25.61311035 217.74904785 -25.59692383 218.76879883 C-25.9375 221.3125 -25.9375 221.3125 -27.2956543 223.13012695 C-29.99223357 225.07206501 -31.65361994 224.75283846 -34.9375 224.3125 C-38.38970559 223.09060092 -41.65023093 221.54584313 -44.9375 219.9375 C-45.87231201 219.48197754 -46.80712402 219.02645508 -47.77026367 218.55712891 C-65.79429333 209.55209833 -82.5560596 195.81264239 -92.9375 178.3125 C-93.58847656 177.25933594 -94.23945312 176.20617187 -94.91015625 175.12109375 C-99.87676369 166.91711473 -103.91617719 158.42417351 -106.9375 149.3125 C-107.14922852 148.68553223 -107.36095703 148.05856445 -107.57910156 147.41259766 C-114.02872647 127.27157406 -113.39980297 101.33713617 -106.9375 81.3125 C-106.4115625 79.64574219 -106.4115625 79.64574219 -105.875 77.9453125 C-95.76500846 49.23012818 -75.21785316 25.05371492 -47.9375 11.3125 C-39.23176188 7.28496813 -30.33833424 4.27150485 -20.9375 2.3125 C-20.21312744 2.14403564 -19.48875488 1.97557129 -18.74243164 1.80200195 C-12.44401371 0.40821701 -6.44242538 -0.03868329 0 0 Z " fill="#FCFCFC" transform="translate(112.9375,1.6875)"/>
</svg>
